<svg
  xmlns="http://www.w3.org/2000/svg"
  version="1.1"
  xmlns:xlink="http://www.w3.org/1999/xlink"
  xmlns:svgjs="http://svgjs.dev/svgjs"
  width="128"
  height="128"
  viewBox="0 0 128 128"
>
  <g transform="matrix(0.8046875,0,0,0.8046875,12.760752631578946,14.76695901611724)">
    <svg
      viewBox="0 0 95 91"
      data-background-color="#ffffff"
      preserveAspectRatio="xMidYMid meet"
      height="122"
      width="128"
      xmlns="http://www.w3.org/2000/svg"
      xmlns:xlink="http://www.w3.org/1999/xlink"
    >
      <g id="tight-bounds" transform="matrix(1,0,0,1,-0.24049999999999727,0.1363569457477638)">
        <svg viewBox="0 0 95.481 90.72728610850449" height="90.72728610850449" width="95.481">
          <g>
            <svg viewBox="0 0 95.481 90.72728610850449" height="90.72728610850449" width="95.481">
              <g>
                <svg
                  viewBox="0 0 95.481 90.72728610850449"
                  height="90.72728610850449"
                  width="95.481"
                >
                  <g id="textblocktransform">
                    <svg
                      viewBox="0 0 95.481 90.72728610850449"
                      height="90.72728610850449"
                      width="95.481"
                      id="textblock"
                    >
                      <g>
                        <svg
                          viewBox="0 0 95.481 90.72728610850449"
                          height="90.72728610850449"
                          width="95.481"
                        >
                          <g>
                            <svg
                              viewBox="0 0 95.481 90.72728610850449"
                              height="90.72728610850449"
                              width="95.481"
                            >
                              <g>
                                <svg
                                  xmlns="http://www.w3.org/2000/svg"
                                  data-name="Layer 1"
                                  viewBox="0 0 128.00062704264016 121.62785802165448"
                                  x="0"
                                  y="0"
                                  width="95.481"
                                  height="90.72728610850449"
                                  class="icon-icon-0"
                                  data-fill-palette-color="accent"
                                  id="icon-0"
                                >
                                  <path
                                    d="M73.549 85.157A2.001 2.001 0 0 0 72.017 82.779c-1.257-0.271-2.093-0.383-2.128-0.387a2 2 0 0 0-0.522 3.965c0.007 0.001 0.722 0.098 1.804 0.332a2.04 2.04 0 0 0 0.425 0.045A2.001 2.001 0 0 0 73.549 85.157Z"
                                    fill="#2f80ed"
                                    data-fill-palette-color="accent"
                                  ></path>
                                  <path
                                    d="M83.793 97.519a1.998 1.998 0 0 0-2.704 0.831 19.943 19.943 0 0 1-2.273 3.31 2 2 0 1 0 3.081 2.551 23.924 23.924 0 0 0 2.727-3.988A2.001 2.001 0 0 0 83.793 97.519Z"
                                    fill="#2f80ed"
                                    data-fill-palette-color="accent"
                                  ></path>
                                  <path
                                    d="M68.92 113.033a2 2 0 0 0 2.799 0.408c1.276-0.952 2.477-1.893 3.568-2.795a2 2 0 0 0-2.551-3.082c-1.039 0.86-2.187 1.759-3.408 2.67A2 2 0 0 0 68.92 113.033Z"
                                    fill="#2f80ed"
                                    data-fill-palette-color="accent"
                                  ></path>
                                  <path
                                    d="M84.723 89.785a12.489 12.489 0 0 0-3.81-3.598 2 2 0 0 0-2.146 3.375 8.561 8.561 0 0 1 2.612 2.418 2 2 0 1 0 3.344-2.195Z"
                                    fill="#2f80ed"
                                    data-fill-palette-color="accent"
                                  ></path>
                                  <path
                                    d="M61.502 119.958a1.989 1.989 0 0 0 1.061-0.306q0.873-0.548 1.708-1.083a2 2 0 0 0-2.161-3.367q-0.817 0.526-1.672 1.062A2 2 0 0 0 61.502 119.958Z"
                                    fill="#2f80ed"
                                    data-fill-palette-color="accent"
                                  ></path>
                                  <path
                                    d="M64 0A64.064 64.064 0 0 0 0.06 61.78a2.105 2.105 0 0 1 0.093-0.231c-0.024 0.377-0.057 0.752-0.074 1.132C0.068 62.633 0.048 62.589 0.04 62.54 0.03 63.03 0 63.51 0 64c0 0.35 0.015 0.697 0.02 1.045C0.017 65.323 0 65.597 0 65.875a2.191 2.191 0 0 0 0.045 0.439A63.471 63.471 0 0 0 11.52 100.55L38.9 92.46a121.31 121.31 0 0 0 11.75-3.97S37.645 85.859 37.501 85.83a5.998 5.998 0 0 1-3.954-8.954A6.031 6.031 0 0 1 38.37 73.96c12.41-0.64 25.08-0.2 28.55 0a0.34 0.34 0 0 1 0.1 0.01 2.015 2.015 0 0 1-0.96-0.47L47.02 56.64 42.49 58.27a1.957 1.957 0 0 1-1.35 0l-4.89-1.75-4.89 1.75a1.958 1.958 0 0 1-1.35 0l-4.89-1.75-4.88 1.75a1.986 1.986 0 0 1-1.36 0l-5.55-2L4.198 63.06c0.079-1.798 0.243-3.573 0.47-5.329L30.33 38.65a1.99 1.99 0 0 1 2.52 0.1L59.14 62.03 84.47 42.98a1.998 1.998 0 0 1 2.33-0.06l31.53 21.51a2.005 2.005 0 0 1 0.53 2.78 2.027 2.027 0 0 1-1.66 0.87 1.926 1.926 0 0 1-1.12-0.35L101.24 57.61l-4 1.63a1.981 1.981 0 0 1-0.76 0.15 1.932 1.932 0 0 1-0.75-0.15l-4.15-1.69-4.14 1.69a2 2 0 0 1-1.52 0l-4.13-1.69-4.14 1.69a1.975 1.975 0 0 1-1.51 0l-4.3-1.76L62.2 64.74l6.51 5.76a2.007 2.007 0 0 1 0.17 2.83 1.972 1.972 0 0 1-1.39 0.66c19.01 1.16 42.46 4.88 55.17 15.55a63.223 63.223 0 0 0 5.278-23.171A2.173 2.173 0 0 0 128 65.875c0-0.324-0.019-0.642-0.024-0.965C127.98 64.606 128 64.305 128 64A64.072 64.072 0 0 0 64 0ZM78.98 19.3a3.409 3.409 0 0 1-1.05 2.71L70.01 27.33l2.03 12.73-6.61-9.85-7.77 4.47a4.059 4.059 0 0 1-1.74 4.12l-5.58-8.32a4.055 4.055 0 0 1 2.27-0.69 3.84 3.84 0 0 1 0.76 0.07 4.175 4.175 0 0 1 1.44 0.57l7.07-5.49L55.27 15.1l11.01 6.69 7.92-5.32a2.06 2.06 0 0 1 1.16-0.31 8.33 8.33 0 0 1 3.51 1.2A10.723 10.723 0 0 1 78.98 19.3Z"
                                    fill="#2f80ed"
                                    data-fill-palette-color="accent"
                                  ></path>
                                  <path
                                    d="M57.59 89.56c-3.24 2-9.32 4.33-17.56 6.74l-25.95 7.67L1.43 107.71a2.014 2.014 0 0 0-1.098 3.011A2.047 2.047 0 0 0 2.57 111.54l38.59-11.4c3.842-1.127 7.686-2.275 11.405-3.769C56.041 94.975 60.544 93.261 62.95 90.27a5.384 5.384 0 0 0 0.91-1.54 7.27 7.27 0 0 1 1.96 1.69c2.135 2.562-1.475 5.727-3.296 7.207a54.826 54.826 0 0 1-7.027 4.484c-11.01 6.409-23.352 10.88-35.45 14.766q-0.349 0.112-0.697 0.223c-0.94 0.299-2.308 0.483-2.94 1.318A2.001 2.001 0 0 0 18.59 121.54c0.02 0 0.23-0.07 0.62-0.19 0.19-0.06 0.39-0.12 0.6-0.19a246.869 246.869 0 0 0 27.258-10.25A90.087 90.087 0 0 0 62.755 102.269c3.386-2.443 7.838-5.792 7.685-10.493-0.152-4.686-5.278-7.196-9.06-8.626a16.744 16.744 0 0 0-2.84-1.47c3.7 0.07 6.55 0.19 7.91 0.27 0.44 0.03 0.88 0.05 1.32 0.08 0.06 0 0.11 0.01 0.17 0.01 3.4 0.2 6.78 0.44 10.12 0.88 0.06 0.01 0.12 0.01 0.17 0.02a58.518 58.518 0 0 1 11.51 2.59c4.4 1.51 9.25 3.51 12.99 6.61a18.993 18.993 0 0 1 3.12 3.22 10.53 10.53 0 0 1 1.87 3.74c1.38 5.36-2.38 11.75-11.18 18.98a2.009 2.009 0 0 0-0.27 2.82 2.032 2.032 0 0 0 2.81 0.27c10.11-8.31 14.32-16.07 12.52-23.07a13.003 13.003 0 0 0-0.87-2.38 19.707 19.707 0 0 0-6.22-7.1c6.7 2.43 11.8 5.45 15.07 8.98 0.25 0.27 0.49 0.55 0.72 0.83a16.448 16.448 0 0 1 1.25 1.7c3.03 4.72 3.26 10.19 0.72 16.74-0.922 2.352 2.783 3.817 3.73 1.45 2.99-7.72 2.63-14.56-1.09-20.35-6.225-8.026-14.845-12.139-24.48-14.89C89.7 80.02 77.44 78.58 66.68 77.95c-3.4-0.2-15.83-0.62-28.02 0a2.11 2.11 0 0 0-1.945 1.733q-0.011 0.078-0.015 0.158c-0.063 1.131 0.744 1.718 1.67 2.089l14.88 3.01c1.42 0.33 2.7 0.66 3.86 1a1.995 1.995 0 0 1 0.48 3.62Z"
                                    fill="#2f80ed"
                                    data-fill-palette-color="accent"
                                  ></path>
                                  <path
                                    d="M81.031 53.539a2.001 2.001 0 0 1 1.514 0l4.137 1.69 4.142-1.69a1.996 1.996 0 0 1 1.512 0L96.481 55.23l0.793-0.323L85.732 47.035l-10.171 7.65 1.334 0.544Z"
                                    fill="#2f80ed"
                                    data-fill-palette-color="accent"
                                  ></path>
                                  <path
                                    d="M17.182 53.409l2.379 0.856 4.885-1.757a2.001 2.001 0 0 1 1.354 0l4.883 1.757 4.887-1.757a1.998 1.998 0 0 1 1.353 0l4.891 1.757 1.794-0.644L31.413 42.824Z"
                                    fill="#2f80ed"
                                    data-fill-palette-color="accent"
                                  ></path>
                                </svg>
                              </g>
                            </svg>
                          </g>
                        </svg>
                      </g>
                    </svg>
                  </g>
                </svg>
              </g>
              <g></g>
            </svg>
          </g>
          <defs></defs>
        </svg>
        <rect
          width="95.481"
          height="90.72728610850449"
          fill="none"
          stroke="none"
          visibility="hidden"
        ></rect>
      </g>
    </svg>
  </g>
</svg>
