<?xml version="1.0" standalone="no"?>
<!DOCTYPE svg PUBLIC "-//W3C//DTD SVG 20010904//EN"
 "http://www.w3.org/TR/2001/REC-SVG-20010904/DTD/svg10.dtd">
<svg version="1.0" xmlns="http://www.w3.org/2000/svg"
 width="128.000000pt" height="128.000000pt" viewBox="0 0 128.000000 128.000000"
 preserveAspectRatio="xMidYMid meet">

<g transform="translate(0.000000,128.000000) scale(0.100000,-0.100000)"
fill="#000000" stroke="none">
<path d="M500 1101 c-86 -28 -134 -56 -203 -121 -165 -154 -205 -396 -101
-602 14 -27 29 -48 34 -48 6 0 74 19 152 42 l142 43 -52 11 c-62 14 -82 28
-82 60 0 46 22 54 146 54 l115 0 -69 61 -70 61 -138 2 c-130 2 -141 0 -171
-21 -39 -29 -43 -29 -43 0 0 18 24 41 103 98 56 41 107 79 114 82 8 5 48 -24
105 -75 51 -46 101 -89 110 -96 15 -12 30 -4 117 62 55 42 104 76 109 76 20 0
267 -176 270 -193 6 -28 -26 -20 -82 20 l-51 36 -128 1 c-124 1 -130 0 -160
-25 l-31 -26 27 -18 c15 -9 27 -23 27 -31 0 -7 14 -15 33 -18 17 -3 66 -10
107 -16 89 -13 212 -53 252 -82 16 -11 31 -19 33 -17 15 16 35 127 35 194 0
144 -46 253 -149 356 -105 105 -213 149 -360 148 -54 0 -107 -7 -141 -18z
m120 -116 l40 -25 38 22 c70 39 104 -10 37 -52 -35 -21 -35 -23 -30 -73 l6
-52 -25 30 c-14 17 -26 33 -26 38 0 16 -59 -24 -66 -45 -6 -21 -8 -20 -35 13
-35 41 -36 49 -6 49 12 1 33 9 45 20 24 20 24 20 4 47 -42 62 -41 65 18 28z"/>
<path d="M334 741 l-51 -37 93 1 c51 0 92 0 91 0 -1 0 -20 17 -42 37 l-40 36
-51 -37z"/>
<path d="M790 723 l-24 -17 31 -7 c18 -3 44 -4 58 -1 l26 5 -28 18 c-34 23
-33 23 -63 2z"/>
<path d="M436 491 c-8 -13 -2 -16 79 -32 159 -30 126 -54 -212 -154 -90 -26
-163 -52 -163 -56 0 -15 15 -11 222 51 205 62 245 77 268 104 10 12 16 14 26
5 8 -6 14 -17 14 -24 0 -35 -146 -118 -305 -174 -100 -35 -134 -58 -72 -47 50
9 227 81 291 118 123 72 140 137 44 170 -82 29 31 33 172 6 71 -13 154 -52
180 -85 37 -47 25 -99 -38 -165 -46 -48 -33 -63 14 -17 72 69 85 134 39 194
-32 43 -25 43 43 4 76 -43 95 -77 88 -159 -5 -59 -4 -63 9 -46 22 29 19 112
-5 152 -39 62 -127 107 -275 139 -92 20 -409 33 -419 16z"/>
<path d="M680 450 c0 -5 9 -10 21 -10 11 0 17 5 14 10 -3 6 -13 10 -21 10 -8
0 -14 -4 -14 -10z"/>
<path d="M760 422 c0 -10 41 -35 47 -28 9 8 -17 36 -33 36 -8 0 -14 -3 -14 -8z"/>
<path d="M782 328 c-7 -7 -12 -19 -12 -27 0 -11 4 -10 20 4 21 19 26 35 12 35
-4 0 -13 -5 -20 -12z"/>
<path d="M700 245 c-21 -25 -1 -31 23 -7 17 18 18 22 5 22 -8 0 -21 -7 -28
-15z"/>
<path d="M621 191 c-9 -6 -10 -11 -2 -15 13 -8 31 1 31 15 0 11 -11 11 -29 0z"/>
</g>
</svg>
